<?xml version="1.0" encoding="utf-8" standalone="no"?>
<!DOCTYPE svg PUBLIC "-//W3C//DTD SVG 1.1//EN"
  "http://www.w3.org/Graphics/SVG/1.1/DTD/svg11.dtd">
<svg xmlns:xlink="http://www.w3.org/1999/xlink" width="447.575875pt" height="337.074375pt" viewBox="0 0 447.575875 337.074375" xmlns="http://www.w3.org/2000/svg" version="1.1">
 <metadata>
  <rdf:RDF xmlns:dc="http://purl.org/dc/elements/1.1/" xmlns:cc="http://creativecommons.org/ns#" xmlns:rdf="http://www.w3.org/1999/02/22-rdf-syntax-ns#">
   <cc:Work>
    <dc:type rdf:resource="http://purl.org/dc/dcmitype/StillImage"/>
    <dc:date>2026-05-08T22:23:15.676334</dc:date>
    <dc:format>image/svg+xml</dc:format>
    <dc:creator>
     <cc:Agent>
      <dc:title>Matplotlib v3.10.8, https://matplotlib.org/</dc:title>
     </cc:Agent>
    </dc:creator>
   </cc:Work>
  </rdf:RDF>
 </metadata>
 <defs>
  <style type="text/css">*{stroke-linejoin: round; stroke-linecap: butt}</style>
 </defs>
 <g id="figure_1">
  <g id="patch_1">
   <path d="M 0 337.074375 
L 447.575875 337.074375 
L 447.575875 0 
L 0 0 
z
" style="fill: #ffffff"/>
  </g>
  <g id="axes_1">
   <g id="patch_2">
    <path d="M 43.78125 299.518125 
L 320.98125 299.518125 
L 320.98125 22.318125 
L 43.78125 22.318125 
z
" style="fill: #ffffff"/>
   </g>
   <g id="matplotlib.axis_1">
    <g id="xtick_1">
     <g id="line2d_1">
      <defs>
       <path id="m5adfb8a9eb" d="M 0 0 
L 0 3.5 
" style="stroke: #000000; stroke-width: 0.8"/>
      </defs>
      <g>
       <use xlink:href="#m5adfb8a9eb" x="43.78125" y="299.518125" style="stroke: #000000; stroke-width: 0.8"/>
      </g>
     </g>
     <g id="text_1">
      <text style="font-size: 10px; font-family: 'DejaVu Sans', 'Bitstream Vera Sans', 'Computer Modern Sans Serif', 'Lucida Grande', 'Verdana', 'Geneva', 'Lucid', 'Arial', 'Helvetica', 'Avant Garde', sans-serif; text-anchor: middle" x="43.78125" y="314.116563" transform="rotate(-0 43.78125 314.116563)">0.0</text>
     </g>
    </g>
    <g id="xtick_2">
     <g id="line2d_2">
      <g>
       <use xlink:href="#m5adfb8a9eb" x="99.22125" y="299.518125" style="stroke: #000000; stroke-width: 0.8"/>
      </g>
     </g>
     <g id="text_2">
      <text style="font-size: 10px; font-family: 'DejaVu Sans', 'Bitstream Vera Sans', 'Computer Modern Sans Serif', 'Lucida Grande', 'Verdana', 'Geneva', 'Lucid', 'Arial', 'Helvetica', 'Avant Garde', sans-serif; text-anchor: middle" x="99.22125" y="314.116563" transform="rotate(-0 99.22125 314.116563)">0.2</text>
     </g>
    </g>
    <g id="xtick_3">
     <g id="line2d_3">
      <g>
       <use xlink:href="#m5adfb8a9eb" x="154.66125" y="299.518125" style="stroke: #000000; stroke-width: 0.8"/>
      </g>
     </g>
     <g id="text_3">
      <text style="font-size: 10px; font-family: 'DejaVu Sans', 'Bitstream Vera Sans', 'Computer Modern Sans Serif', 'Lucida Grande', 'Verdana', 'Geneva', 'Lucid', 'Arial', 'Helvetica', 'Avant Garde', sans-serif; text-anchor: middle" x="154.66125" y="314.116563" transform="rotate(-0 154.66125 314.116563)">0.4</text>
     </g>
    </g>
    <g id="xtick_4">
     <g id="line2d_4">
      <g>
       <use xlink:href="#m5adfb8a9eb" x="210.10125" y="299.518125" style="stroke: #000000; stroke-width: 0.8"/>
      </g>
     </g>
     <g id="text_4">
      <text style="font-size: 10px; font-family: 'DejaVu Sans', 'Bitstream Vera Sans', 'Computer Modern Sans Serif', 'Lucida Grande', 'Verdana', 'Geneva', 'Lucid', 'Arial', 'Helvetica', 'Avant Garde', sans-serif; text-anchor: middle" x="210.10125" y="314.116563" transform="rotate(-0 210.10125 314.116563)">0.6</text>
     </g>
    </g>
    <g id="xtick_5">
     <g id="line2d_5">
      <g>
       <use xlink:href="#m5adfb8a9eb" x="265.54125" y="299.518125" style="stroke: #000000; stroke-width: 0.8"/>
      </g>
     </g>
     <g id="text_5">
      <text style="font-size: 10px; font-family: 'DejaVu Sans', 'Bitstream Vera Sans', 'Computer Modern Sans Serif', 'Lucida Grande', 'Verdana', 'Geneva', 'Lucid', 'Arial', 'Helvetica', 'Avant Garde', sans-serif; text-anchor: middle" x="265.54125" y="314.116563" transform="rotate(-0 265.54125 314.116563)">0.8</text>
     </g>
    </g>
    <g id="xtick_6">
     <g id="line2d_6">
      <g>
       <use xlink:href="#m5adfb8a9eb" x="320.98125" y="299.518125" style="stroke: #000000; stroke-width: 0.8"/>
      </g>
     </g>
     <g id="text_6">
      <text style="font-size: 10px; font-family: 'DejaVu Sans', 'Bitstream Vera Sans', 'Computer Modern Sans Serif', 'Lucida Grande', 'Verdana', 'Geneva', 'Lucid', 'Arial', 'Helvetica', 'Avant Garde', sans-serif; text-anchor: middle" x="320.98125" y="314.116563" transform="rotate(-0 320.98125 314.116563)">1.0</text>
     </g>
    </g>
    <g id="text_7">
     <text style="font-size: 10px; font-family: 'DejaVu Sans', 'Bitstream Vera Sans', 'Computer Modern Sans Serif', 'Lucida Grande', 'Verdana', 'Geneva', 'Lucid', 'Arial', 'Helvetica', 'Avant Garde', sans-serif; text-anchor: middle" x="182.38125" y="327.794688" transform="rotate(-0 182.38125 327.794688)">Expected (Uniform)</text>
    </g>
   </g>
   <g id="matplotlib.axis_2">
    <g id="ytick_1">
     <g id="line2d_7">
      <defs>
       <path id="m18db87921f" d="M 0 0 
L -3.5 0 
" style="stroke: #000000; stroke-width: 0.8"/>
      </defs>
      <g>
       <use xlink:href="#m18db87921f" x="43.78125" y="299.518125" style="stroke: #000000; stroke-width: 0.8"/>
      </g>
     </g>
     <g id="text_8">
      <text style="font-size: 10px; font-family: 'DejaVu Sans', 'Bitstream Vera Sans', 'Computer Modern Sans Serif', 'Lucida Grande', 'Verdana', 'Geneva', 'Lucid', 'Arial', 'Helvetica', 'Avant Garde', sans-serif; text-anchor: end" x="36.78125" y="303.317344" transform="rotate(-0 36.78125 303.317344)">0.0</text>
     </g>
    </g>
    <g id="ytick_2">
     <g id="line2d_8">
      <g>
       <use xlink:href="#m18db87921f" x="43.78125" y="244.078125" style="stroke: #000000; stroke-width: 0.8"/>
      </g>
     </g>
     <g id="text_9">
      <text style="font-size: 10px; font-family: 'DejaVu Sans', 'Bitstream Vera Sans', 'Computer Modern Sans Serif', 'Lucida Grande', 'Verdana', 'Geneva', 'Lucid', 'Arial', 'Helvetica', 'Avant Garde', sans-serif; text-anchor: end" x="36.78125" y="247.877344" transform="rotate(-0 36.78125 247.877344)">0.2</text>
     </g>
    </g>
    <g id="ytick_3">
     <g id="line2d_9">
      <g>
       <use xlink:href="#m18db87921f" x="43.78125" y="188.638125" style="stroke: #000000; stroke-width: 0.8"/>
      </g>
     </g>
     <g id="text_10">
      <text style="font-size: 10px; font-family: 'DejaVu Sans', 'Bitstream Vera Sans', 'Computer Modern Sans Serif', 'Lucida Grande', 'Verdana', 'Geneva', 'Lucid', 'Arial', 'Helvetica', 'Avant Garde', sans-serif; text-anchor: end" x="36.78125" y="192.437344" transform="rotate(-0 36.78125 192.437344)">0.4</text>
     </g>
    </g>
    <g id="ytick_4">
     <g id="line2d_10">
      <g>
       <use xlink:href="#m18db87921f" x="43.78125" y="133.198125" style="stroke: #000000; stroke-width: 0.8"/>
      </g>
     </g>
     <g id="text_11">
      <text style="font-size: 10px; font-family: 'DejaVu Sans', 'Bitstream Vera Sans', 'Computer Modern Sans Serif', 'Lucida Grande', 'Verdana', 'Geneva', 'Lucid', 'Arial', 'Helvetica', 'Avant Garde', sans-serif; text-anchor: end" x="36.78125" y="136.997344" transform="rotate(-0 36.78125 136.997344)">0.6</text>
     </g>
    </g>
    <g id="ytick_5">
     <g id="line2d_11">
      <g>
       <use xlink:href="#m18db87921f" x="43.78125" y="77.758125" style="stroke: #000000; stroke-width: 0.8"/>
      </g>
     </g>
     <g id="text_12">
      <text style="font-size: 10px; font-family: 'DejaVu Sans', 'Bitstream Vera Sans', 'Computer Modern Sans Serif', 'Lucida Grande', 'Verdana', 'Geneva', 'Lucid', 'Arial', 'Helvetica', 'Avant Garde', sans-serif; text-anchor: end" x="36.78125" y="81.557344" transform="rotate(-0 36.78125 81.557344)">0.8</text>
     </g>
    </g>
    <g id="ytick_6">
     <g id="line2d_12">
      <g>
       <use xlink:href="#m18db87921f" x="43.78125" y="22.318125" style="stroke: #000000; stroke-width: 0.8"/>
      </g>
     </g>
     <g id="text_13">
      <text style="font-size: 10px; font-family: 'DejaVu Sans', 'Bitstream Vera Sans', 'Computer Modern Sans Serif', 'Lucida Grande', 'Verdana', 'Geneva', 'Lucid', 'Arial', 'Helvetica', 'Avant Garde', sans-serif; text-anchor: end" x="36.78125" y="26.117344" transform="rotate(-0 36.78125 26.117344)">1.0</text>
     </g>
    </g>
    <g id="text_14">
     <text style="font-size: 10px; font-family: 'DejaVu Sans', 'Bitstream Vera Sans', 'Computer Modern Sans Serif', 'Lucida Grande', 'Verdana', 'Geneva', 'Lucid', 'Arial', 'Helvetica', 'Avant Garde', sans-serif; text-anchor: middle" x="14.798438" y="160.918125" transform="rotate(-90 14.798438 160.918125)">Observed p-value</text>
    </g>
   </g>
   <g id="line2d_13">
    <path d="M 43.919781 299.352663 
L 45.166557 297.965618 
L 47.105988 296.247407 
L 48.352764 295.142224 
L 49.045418 294.379936 
L 51.816033 291.8858 
L 52.924278 290.919227 
L 54.171055 289.741458 
L 55.00224 288.924787 
L 55.556362 288.40008 
L 58.604039 285.396808 
L 59.296692 284.695506 
L 64.837922 279.631863 
L 77.998341 266.205307 
L 78.690995 265.495686 
L 79.52218 264.672598 
L 80.353364 263.737057 
L 83.816632 260.418276 
L 86.310186 258.022404 
L 87.279901 256.958948 
L 87.695493 256.554114 
L 89.0808 255.011009 
L 89.773454 254.306132 
L 90.743169 253.340479 
L 98.916482 244.767632 
L 99.609136 244.146316 
L 103.626527 240.652023 
L 107.643919 236.604696 
L 108.336572 235.980527 
L 109.029226 235.328568 
L 109.72188 234.66404 
L 111.522779 232.853081 
L 128.423529 216.176557 
L 129.254713 215.229291 
L 139.090395 205.33562 
L 140.198641 204.252868 
L 142.415133 201.981396 
L 143.384848 201.018086 
L 147.263709 196.918082 
L 148.787547 195.351277 
L 150.726977 193.383798 
L 151.835223 192.223838 
L 153.497592 190.587804 
L 154.328776 189.75824 
L 156.822329 187.497715 
L 157.653514 186.703419 
L 159.592944 184.789292 
L 160.70119 183.605323 
L 161.393844 182.971187 
L 162.50209 181.735125 
L 163.333274 180.858358 
L 170.813934 173.098512 
L 171.92218 172.067931 
L 172.891895 171.117041 
L 179.818431 164.031645 
L 180.788147 163.018662 
L 182.866108 160.930994 
L 184.389946 159.395847 
L 185.498192 158.347073 
L 186.467907 157.344934 
L 188.407337 155.318265 
L 189.238521 154.494969 
L 192.84032 150.694298 
L 194.364159 149.050352 
L 196.996243 146.4631 
L 199.905388 143.352276 
L 200.598042 142.652525 
L 201.152165 142.055203 
L 204.476902 138.764368 
L 205.446617 137.800307 
L 211.126377 132.025146 
L 213.4814 129.600145 
L 217.637322 125.560034 
L 218.884099 124.329739 
L 221.516183 121.789192 
L 222.070305 121.26141 
L 223.317082 120.120927 
L 224.563859 118.889471 
L 225.672105 117.791323 
L 226.364758 117.02208 
L 227.195943 116.227509 
L 228.027127 115.470399 
L 229.828027 113.650583 
L 232.460111 111.172083 
L 233.152764 110.545921 
L 233.845418 109.79303 
L 234.538072 109.053475 
L 236.893094 106.732528 
L 237.308686 106.379714 
L 238.555463 105.089488 
L 238.971055 104.710337 
L 239.525178 104.063884 
L 242.295793 101.155554 
L 243.6811 99.765135 
L 244.650815 98.781095 
L 247.837022 95.77194 
L 253.793844 89.69269 
L 254.347967 89.230947 
L 254.90209 88.73082 
L 264.46071 79.264928 
L 265.430425 78.250089 
L 270.00194 73.851246 
L 270.417532 73.428833 
L 270.971655 72.860207 
L 277.482599 66.53902 
L 279.42203 64.584203 
L 280.253214 63.869155 
L 282.746767 61.27909 
L 284.270605 59.8384 
L 284.547667 59.637949 
L 286.348566 57.631822 
L 289.673304 54.269552 
L 291.474204 52.571326 
L 296.876902 47.029085 
L 298.123679 45.673458 
L 299.093394 44.654151 
L 299.786048 43.940947 
L 301.171355 42.419912 
L 302.418132 41.15614 
L 303.387847 40.122339 
L 304.496093 39.005582 
L 308.236422 35.189606 
L 309.62173 33.806758 
L 311.976752 31.362161 
L 312.946467 30.345033 
L 314.054713 29.351808 
L 315.578551 27.876646 
L 316.548266 26.829695 
L 319.18035 24.080278 
L 319.873004 23.355386 
L 320.842719 22.45173 
L 320.842719 22.45173 
" clip-path="url(#p0677b04d5a)" style="fill: none; stroke: #1f77b4; stroke-opacity: 0.5; stroke-width: 1.2; stroke-linecap: square"/>
   </g>
   <g id="line2d_14">
    <path d="M 43.919781 299.411631 
L 45.305088 298.653972 
L 45.997742 297.831963 
L 49.46101 293.695855 
L 51.123379 291.683217 
L 52.924278 289.481316 
L 54.032524 288.16144 
L 54.863709 287.224701 
L 55.417832 286.50815 
L 59.573754 281.682189 
L 60.404938 280.663314 
L 61.790246 279.064814 
L 64.145268 276.359525 
L 64.699391 275.666909 
L 65.392045 274.748756 
L 67.608536 272.240227 
L 68.716782 270.994025 
L 69.132374 270.584417 
L 70.10209 269.585977 
L 70.933274 268.688304 
L 73.288296 266.298619 
L 75.366257 263.924232 
L 76.335973 262.887627 
L 77.444219 261.584612 
L 77.998341 261.016858 
L 79.66071 259.123667 
L 81.600141 256.966342 
L 82.292794 256.19944 
L 83.40104 255.049478 
L 86.310186 251.862103 
L 87.418431 250.741774 
L 87.834024 250.260997 
L 88.388147 249.648862 
L 92.267007 245.565368 
L 92.682599 245.049393 
L 93.098192 244.67295 
L 94.899091 243.113519 
L 95.591745 242.505261 
L 102.102689 236.189658 
L 102.933874 235.310792 
L 105.011835 233.039617 
L 110.414533 227.633575 
L 112.215433 226.141183 
L 114.986048 223.692882 
L 117.202539 221.459077 
L 118.587847 220.146572 
L 120.388746 218.424036 
L 122.189646 216.676726 
L 123.713484 215.053377 
L 124.406138 214.353832 
L 125.375853 213.342461 
L 126.484099 212.300274 
L 129.393244 209.234875 
L 129.808836 208.848123 
L 131.194144 207.531318 
L 141.999541 196.658877 
L 142.692195 195.874973 
L 143.384848 195.184734 
L 144.770156 193.724567 
L 146.986647 191.479684 
L 152.527877 186.060744 
L 152.804938 185.80993 
L 155.991145 182.527573 
L 157.514983 181.062232 
L 158.484698 180.110818 
L 159.177352 179.397003 
L 160.008536 178.586972 
L 160.70119 177.962795 
L 162.917682 175.5368 
L 166.935073 171.551658 
L 168.32038 170.170817 
L 172.476302 166.102377 
L 173.584548 164.987871 
L 176.355163 162.378533 
L 177.047817 161.660966 
L 177.879001 160.88575 
L 198.797142 140.277398 
L 199.766857 139.384922 
L 201.567757 137.715055 
L 205.169556 134.066793 
L 206.277802 132.969579 
L 208.355763 131.038925 
L 210.018132 129.346 
L 211.403439 127.996182 
L 212.096093 127.309361 
L 213.065808 126.38922 
L 213.758461 125.728287 
L 215.005238 124.446043 
L 216.944668 122.669621 
L 217.775853 121.870115 
L 218.745568 120.926742 
L 221.516183 118.359166 
L 222.070305 117.849008 
L 224.425328 115.524691 
L 226.364758 113.661095 
L 227.057412 112.995084 
L 228.719781 111.369749 
L 232.32158 107.830255 
L 233.983949 106.260473 
L 242.849916 97.468914 
L 243.542569 96.83072 
L 245.066407 95.316981 
L 246.174653 94.31936 
L 247.144368 93.450641 
L 251.438821 89.189416 
L 252.408536 88.192775 
L 257.811235 82.959729 
L 258.919481 81.863426 
L 260.58185 80.232655 
L 261.274503 79.5867 
L 263.490995 77.52097 
L 264.737772 76.25477 
L 267.369856 73.868991 
L 268.755163 72.593074 
L 269.863409 71.526496 
L 270.417532 71.008861 
L 270.833124 70.663819 
L 274.434923 67.204261 
L 275.127577 66.581703 
L 280.668806 61.310595 
L 281.36146 60.667232 
L 282.746767 59.40823 
L 283.993544 58.260314 
L 287.872404 54.730399 
L 288.703589 53.907693 
L 290.227427 52.296813 
L 291.197142 51.426246 
L 293.275103 49.340836 
L 293.690695 48.907405 
L 301.725478 41.1527 
L 304.911685 38.034669 
L 306.851115 36.056443 
L 309.206138 33.934546 
L 310.591445 32.475948 
L 311.145568 31.935847 
L 313.777652 29.35986 
L 315.717082 27.497076 
L 319.595943 23.619051 
L 320.427127 22.828896 
L 320.842719 22.441134 
L 320.842719 22.441134 
" clip-path="url(#p0677b04d5a)" style="fill: none; stroke: #ff7f0e; stroke-opacity: 0.5; stroke-width: 1.2; stroke-linecap: square"/>
   </g>
   <g id="line2d_15">
    <path d="M 43.919781 299.411821 
L 44.612434 298.865018 
L 45.305088 298.201635 
L 47.52158 295.936215 
L 48.075703 295.473394 
L 50.569256 292.869733 
L 51.26191 292.107528 
L 51.954563 291.319885 
L 53.062809 290.084768 
L 54.863709 288.208265 
L 56.387547 286.56258 
L 60.266407 282.502042 
L 60.82053 281.897569 
L 62.759961 279.906255 
L 64.976452 277.684781 
L 65.946168 276.626524 
L 67.747067 274.791933 
L 69.547967 273.090541 
L 71.071805 271.621831 
L 74.950665 267.590959 
L 77.444219 265.346427 
L 78.136872 264.672413 
L 79.52218 263.247308 
L 80.491895 262.284034 
L 84.786347 258.295855 
L 87.695493 255.395446 
L 89.911985 253.408513 
L 96.007337 247.244963 
L 100.44032 242.95988 
L 100.994443 242.426597 
L 103.626527 239.720015 
L 106.535673 236.653965 
L 107.366857 235.775286 
L 108.752165 234.399321 
L 109.998941 233.114023 
L 111.66131 231.427432 
L 112.215433 230.831703 
L 114.847517 228.010225 
L 116.232824 226.822234 
L 116.786947 226.299895 
L 118.449316 224.696725 
L 122.051115 221.103235 
L 124.267607 218.75961 
L 134.24182 208.466982 
L 134.934473 207.658321 
L 139.783049 202.602964 
L 141.445418 200.985531 
L 142.969256 199.464774 
L 144.077502 198.329105 
L 145.324278 197.056328 
L 146.848117 195.395372 
L 147.679301 194.479899 
L 151.973754 190.220457 
L 152.666407 189.48392 
L 154.467307 187.696784 
L 155.437022 186.781598 
L 157.376452 184.773401 
L 158.346168 183.731254 
L 159.038821 183.099167 
L 161.116782 181.061236 
L 161.532374 180.667512 
L 163.056213 179.036458 
L 164.44152 177.64575 
L 165.272704 176.744319 
L 166.519481 175.605529 
L 168.874503 173.316491 
L 169.705688 172.423791 
L 170.536872 171.654347 
L 171.645118 170.581056 
L 183.835823 158.200998 
L 184.944069 157.034537 
L 193.117382 149.225291 
L 193.810036 148.526083 
L 195.333874 146.983383 
L 200.32098 142.250729 
L 201.429226 141.143614 
L 212.234623 130.375293 
L 217.498791 125.128156 
L 217.914383 124.725435 
L 219.16116 123.446173 
L 220.407937 122.321108 
L 221.516183 121.264856 
L 228.858311 113.879961 
L 229.966557 112.699899 
L 230.659211 112.044255 
L 233.152764 109.452456 
L 233.983949 108.622146 
L 234.815133 107.768063 
L 235.507787 107.144979 
L 236.06191 106.637766 
L 242.849916 100.040666 
L 245.066407 97.707453 
L 245.62053 97.165947 
L 246.451715 96.280838 
L 249.776452 93.095056 
L 250.884698 92.020641 
L 252.824129 90.083049 
L 256.425928 86.348887 
L 257.672704 85.178173 
L 259.335073 83.5111 
L 260.58185 82.320694 
L 261.413034 81.487827 
L 261.967157 80.958324 
L 262.659811 80.314535 
L 263.490995 79.479658 
L 263.906587 78.998183 
L 265.014833 77.936978 
L 266.400141 76.643066 
L 270.694593 72.694423 
L 271.387247 71.99619 
L 275.404638 68.082514 
L 276.374353 67.121384 
L 277.344069 66.124153 
L 277.898192 65.594528 
L 278.867907 64.576616 
L 279.699091 63.652629 
L 280.530275 62.791365 
L 282.192644 61.176639 
L 282.885298 60.455798 
L 284.547667 58.737007 
L 286.071505 57.095511 
L 286.625628 56.5197 
L 287.456812 55.49607 
L 288.426527 54.572295 
L 296.322779 47.066494 
L 297.708087 45.637188 
L 303.664908 39.675231 
L 304.634623 38.685125 
L 306.158461 37.144823 
L 306.989646 36.319697 
L 307.82083 35.568654 
L 309.206138 34.225667 
L 309.62173 33.760602 
L 310.452914 32.971643 
L 320.842719 22.423692 
L 320.842719 22.423692 
" clip-path="url(#p0677b04d5a)" style="fill: none; stroke: #2ca02c; stroke-opacity: 0.5; stroke-width: 1.2; stroke-linecap: square"/>
   </g>
   <g id="line2d_16">
    <path d="M 43.919781 299.333283 
L 44.750965 298.275285 
L 47.52158 294.688447 
L 49.183949 292.712685 
L 50.292195 291.634219 
L 51.40044 290.469574 
L 51.954563 289.914668 
L 53.20134 288.39075 
L 53.755463 287.782229 
L 55.279301 286.004762 
L 55.971955 285.300032 
L 57.080201 284.09945 
L 58.049916 283.177362 
L 58.465508 282.738078 
L 58.8811 282.323421 
L 60.82053 280.20074 
L 61.651715 279.344664 
L 62.344368 278.538391 
L 63.175553 277.565113 
L 64.145268 276.551236 
L 65.253514 275.32675 
L 67.331475 273.282467 
L 68.993844 271.355293 
L 70.517682 269.728189 
L 71.625928 268.528182 
L 72.318581 267.803498 
L 73.149766 266.908829 
L 73.703889 266.321753 
L 74.258012 265.736885 
L 74.812135 265.143676 
L 75.643319 264.388086 
L 76.335973 263.656391 
L 77.028626 262.870768 
L 77.998341 261.755077 
L 78.829526 260.85209 
L 82.015733 257.468137 
L 83.816632 255.754345 
L 85.34047 254.237177 
L 86.033124 253.538887 
L 91.158761 248.407619 
L 91.851415 247.7085 
L 93.929376 245.632679 
L 95.591745 244.038812 
L 97.254114 242.357702 
L 97.808237 241.806606 
L 98.777952 240.780878 
L 100.024728 239.525974 
L 100.855913 238.605241 
L 102.656812 236.889767 
L 103.626527 235.997803 
L 104.04212 235.627606 
L 104.596243 234.997122 
L 105.843019 233.853551 
L 107.228326 232.500373 
L 110.968656 229.010972 
L 112.076902 227.992748 
L 113.185148 226.919245 
L 114.293394 225.885231 
L 115.124578 225.016495 
L 117.34107 222.910423 
L 118.587847 221.726993 
L 119.557562 220.885247 
L 120.942869 219.551787 
L 122.051115 218.471489 
L 127.453814 213.103047 
L 130.50149 209.881035 
L 130.917082 209.457381 
L 137.843619 202.29606 
L 139.090395 201.095832 
L 140.198641 199.985638 
L 143.107787 196.907381 
L 144.493094 195.573323 
L 147.817832 192.062476 
L 150.172854 189.866396 
L 156.96086 183.148016 
L 161.947967 178.084555 
L 162.225028 177.775675 
L 162.779151 177.194533 
L 164.995643 175.032739 
L 165.549766 174.473191 
L 170.398341 169.638833 
L 171.368057 168.663774 
L 173.168956 166.860621 
L 173.723079 166.314754 
L 176.909286 163.086134 
L 178.848716 161.172789 
L 179.402839 160.556726 
L 182.173454 157.884867 
L 182.866108 157.220769 
L 183.697292 156.423569 
L 184.944069 155.130849 
L 185.498192 154.531407 
L 186.467907 153.65406 
L 189.238521 150.97912 
L 190.762359 149.520367 
L 191.316482 148.972729 
L 192.147667 148.126924 
L 192.84032 147.487087 
L 206.554863 134.252023 
L 208.355763 132.550895 
L 211.403439 129.63051 
L 212.511685 128.610974 
L 215.42083 125.62223 
L 217.083199 123.973067 
L 218.884099 122.032489 
L 224.702389 116.538057 
L 225.810635 115.522787 
L 227.473004 113.793221 
L 229.689496 111.633815 
L 230.797742 110.549251 
L 231.351865 110.0671 
L 232.32158 109.169076 
L 238.971055 102.795503 
L 240.356362 101.268425 
L 241.74167 99.946738 
L 242.157262 99.502918 
L 243.6811 97.875259 
L 244.512284 97.111342 
L 249.776452 91.734027 
L 250.607637 90.92912 
L 253.793844 87.94562 
L 254.625028 87.079095 
L 256.010335 85.727926 
L 257.257112 84.486219 
L 258.226827 83.524895 
L 258.642419 83.063109 
L 261.690096 80.285642 
L 262.52128 79.504493 
L 263.352464 78.746491 
L 263.768057 78.318998 
L 264.46071 77.652355 
L 268.893694 73.337904 
L 277.067007 65.799454 
L 277.62113 65.273876 
L 279.144968 63.782315 
L 280.114683 62.887741 
L 282.054114 60.913728 
L 282.469706 60.483352 
L 283.855013 59.168623 
L 284.409136 58.571182 
L 287.456812 55.628089 
L 288.426527 54.612527 
L 290.920081 52.235052 
L 292.028326 51.11566 
L 292.998042 50.239334 
L 294.106287 49.130581 
L 295.491595 47.78321 
L 296.599841 46.548636 
L 299.370455 43.684493 
L 302.14107 40.744261 
L 304.496093 38.486834 
L 305.465808 37.562808 
L 306.019931 37.023793 
L 308.513484 34.562565 
L 309.62173 33.461286 
L 310.729976 32.329626 
L 313.084998 30.091156 
L 314.193244 28.893372 
L 316.963859 26.152521 
L 317.517982 25.646604 
L 319.04182 24.193224 
L 319.595943 23.600652 
L 320.842719 22.415755 
L 320.842719 22.415755 
" clip-path="url(#p0677b04d5a)" style="fill: none; stroke: #d62728; stroke-opacity: 0.5; stroke-width: 1.2; stroke-linecap: square"/>
   </g>
   <g id="line2d_17">
    <path d="M 43.78125 299.518125 
L 320.98125 22.318125 
" clip-path="url(#p0677b04d5a)" style="fill: none; stroke-dasharray: 2.96,1.28; stroke-dashoffset: 0; stroke: #000000; stroke-width: 0.8"/>
   </g>
   <g id="patch_3">
    <path d="M 43.78125 299.518125 
L 43.78125 22.318125 
" style="fill: none; stroke: #000000; stroke-width: 0.8; stroke-linejoin: miter; stroke-linecap: square"/>
   </g>
   <g id="patch_4">
    <path d="M 320.98125 299.518125 
L 320.98125 22.318125 
" style="fill: none; stroke: #000000; stroke-width: 0.8; stroke-linejoin: miter; stroke-linecap: square"/>
   </g>
   <g id="patch_5">
    <path d="M 43.78125 299.518125 
L 320.98125 299.518125 
" style="fill: none; stroke: #000000; stroke-width: 0.8; stroke-linejoin: miter; stroke-linecap: square"/>
   </g>
   <g id="patch_6">
    <path d="M 43.78125 22.318125 
L 320.98125 22.318125 
" style="fill: none; stroke: #000000; stroke-width: 0.8; stroke-linejoin: miter; stroke-linecap: square"/>
   </g>
   <g id="text_15">
    <text style="font-size: 12px; font-family: 'DejaVu Sans', 'Bitstream Vera Sans', 'Computer Modern Sans Serif', 'Lucida Grande', 'Verdana', 'Geneva', 'Lucid', 'Arial', 'Helvetica', 'Avant Garde', sans-serif; text-anchor: middle" x="182.38125" y="16.318125" transform="rotate(-0 182.38125 16.318125)">cohen -- MWU, +reporter  (4 cell types)</text>
   </g>
   <g id="legend_1">
    <g id="line2d_18">
     <path d="M 332.82525 144.987656 
L 339.82525 144.987656 
L 346.82525 144.987656 
" style="fill: none; stroke: #1f77b4; stroke-opacity: 0.5; stroke-width: 1.2; stroke-linecap: square"/>
    </g>
    <g id="text_16">
     <text style="font-size: 7px; font-family: 'DejaVu Sans', 'Bitstream Vera Sans', 'Computer Modern Sans Serif', 'Lucida Grande', 'Verdana', 'Geneva', 'Lucid', 'Arial', 'Helvetica', 'Avant Garde', sans-serif; text-anchor: start" x="352.42525" y="147.437656" transform="rotate(-0 352.42525 147.437656)">Rod  FPR=0.053</text>
    </g>
    <g id="line2d_19">
     <path d="M 332.82525 155.262344 
L 339.82525 155.262344 
L 346.82525 155.262344 
" style="fill: none; stroke: #ff7f0e; stroke-opacity: 0.5; stroke-width: 1.2; stroke-linecap: square"/>
    </g>
    <g id="text_17">
     <text style="font-size: 7px; font-family: 'DejaVu Sans', 'Bitstream Vera Sans', 'Computer Modern Sans Serif', 'Lucida Grande', 'Verdana', 'Geneva', 'Lucid', 'Arial', 'Helvetica', 'Avant Garde', sans-serif; text-anchor: start" x="352.42525" y="157.712344" transform="rotate(-0 352.42525 157.712344)">Interneuron  FPR=0.045</text>
    </g>
    <g id="line2d_20">
     <path d="M 332.82525 165.537031 
L 339.82525 165.537031 
L 346.82525 165.537031 
" style="fill: none; stroke: #2ca02c; stroke-opacity: 0.5; stroke-width: 1.2; stroke-linecap: square"/>
    </g>
    <g id="text_18">
     <text style="font-size: 7px; font-family: 'DejaVu Sans', 'Bitstream Vera Sans', 'Computer Modern Sans Serif', 'Lucida Grande', 'Verdana', 'Geneva', 'Lucid', 'Arial', 'Helvetica', 'Avant Garde', sans-serif; text-anchor: start" x="352.42525" y="167.987031" transform="rotate(-0 352.42525 167.987031)">Bipolar  FPR=0.049</text>
    </g>
    <g id="line2d_21">
     <path d="M 332.82525 175.811719 
L 339.82525 175.811719 
L 346.82525 175.811719 
" style="fill: none; stroke: #d62728; stroke-opacity: 0.5; stroke-width: 1.2; stroke-linecap: square"/>
    </g>
    <g id="text_19">
     <text style="font-size: 7px; font-family: 'DejaVu Sans', 'Bitstream Vera Sans', 'Computer Modern Sans Serif', 'Lucida Grande', 'Verdana', 'Geneva', 'Lucid', 'Arial', 'Helvetica', 'Avant Garde', sans-serif; text-anchor: start" x="352.42525" y="178.261719" transform="rotate(-0 352.42525 178.261719)">Mueller Glia  FPR=0.043</text>
    </g>
   </g>
  </g>
 </g>
 <defs>
  <clipPath id="p0677b04d5a">
   <rect x="43.78125" y="22.318125" width="277.2" height="277.2"/>
  </clipPath>
 </defs>
</svg>
