<?xml version="1.0" encoding="utf-8" standalone="no"?>
<!DOCTYPE svg PUBLIC "-//W3C//DTD SVG 1.1//EN"
  "http://www.w3.org/Graphics/SVG/1.1/DTD/svg11.dtd">
<svg xmlns:xlink="http://www.w3.org/1999/xlink" width="296.50125pt" height="257.938688pt" viewBox="0 0 296.50125 257.938688" xmlns="http://www.w3.org/2000/svg" version="1.1">
 <metadata>
  <rdf:RDF xmlns:dc="http://purl.org/dc/elements/1.1/" xmlns:cc="http://creativecommons.org/ns#" xmlns:rdf="http://www.w3.org/1999/02/22-rdf-syntax-ns#">
   <cc:Work>
    <dc:type rdf:resource="http://purl.org/dc/dcmitype/StillImage"/>
    <dc:date>2026-08-13T17:46:11.890627</dc:date>
    <dc:format>image/svg+xml</dc:format>
    <dc:creator>
     <cc:Agent>
      <dc:title>Matplotlib v3.10.8, https://matplotlib.org/</dc:title>
     </cc:Agent>
    </dc:creator>
   </cc:Work>
  </rdf:RDF>
 </metadata>
 <defs>
  <style type="text/css">*{stroke-linejoin: round; stroke-linecap: butt}</style>
 </defs>
 <g id="figure_1">
  <g id="patch_1">
   <path d="M 0 257.938688 
L 296.50125 257.938688 
L 296.50125 0 
L 0 0 
z
" style="fill: #ffffff"/>
  </g>
  <g id="axes_1">
   <g id="patch_2">
    <path d="M 43.78125 220.382438 
L 289.30125 220.382438 
L 289.30125 20.798438 
L 43.78125 20.798438 
z
" style="fill: #ffffff"/>
   </g>
   <g id="matplotlib.axis_1">
    <g id="xtick_1">
     <g id="line2d_1">
      <path d="M 54.94125 220.382438 
L 54.94125 20.798438 
" clip-path="url(#pe4ce6c6e18)" style="fill: none; stroke: #b0b0b0; stroke-opacity: 0.3; stroke-width: 0.8; stroke-linecap: square"/>
     </g>
     <g id="line2d_2">
      <defs>
       <path id="mf80f75ecf8" d="M 0 0 
L 0 3.5 
" style="stroke: #000000; stroke-width: 0.8"/>
      </defs>
      <g>
       <use xlink:href="#mf80f75ecf8" x="54.94125" y="220.382438" style="stroke: #000000; stroke-width: 0.8"/>
      </g>
     </g>
     <g id="text_1">
      <text style="font-size: 10px; font-family: 'DejaVu Sans', 'Bitstream Vera Sans', 'Computer Modern Sans Serif', 'Lucida Grande', 'Verdana', 'Geneva', 'Lucid', 'Arial', 'Helvetica', 'Avant Garde', sans-serif; text-anchor: middle" x="54.94125" y="234.980875" transform="rotate(-0 54.94125 234.980875)">0.0</text>
     </g>
    </g>
    <g id="xtick_2">
     <g id="line2d_3">
      <path d="M 99.58125 220.382438 
L 99.58125 20.798438 
" clip-path="url(#pe4ce6c6e18)" style="fill: none; stroke: #b0b0b0; stroke-opacity: 0.3; stroke-width: 0.8; stroke-linecap: square"/>
     </g>
     <g id="line2d_4">
      <g>
       <use xlink:href="#mf80f75ecf8" x="99.58125" y="220.382438" style="stroke: #000000; stroke-width: 0.8"/>
      </g>
     </g>
     <g id="text_2">
      <text style="font-size: 10px; font-family: 'DejaVu Sans', 'Bitstream Vera Sans', 'Computer Modern Sans Serif', 'Lucida Grande', 'Verdana', 'Geneva', 'Lucid', 'Arial', 'Helvetica', 'Avant Garde', sans-serif; text-anchor: middle" x="99.58125" y="234.980875" transform="rotate(-0 99.58125 234.980875)">0.2</text>
     </g>
    </g>
    <g id="xtick_3">
     <g id="line2d_5">
      <path d="M 144.22125 220.382438 
L 144.22125 20.798438 
" clip-path="url(#pe4ce6c6e18)" style="fill: none; stroke: #b0b0b0; stroke-opacity: 0.3; stroke-width: 0.8; stroke-linecap: square"/>
     </g>
     <g id="line2d_6">
      <g>
       <use xlink:href="#mf80f75ecf8" x="144.22125" y="220.382438" style="stroke: #000000; stroke-width: 0.8"/>
      </g>
     </g>
     <g id="text_3">
      <text style="font-size: 10px; font-family: 'DejaVu Sans', 'Bitstream Vera Sans', 'Computer Modern Sans Serif', 'Lucida Grande', 'Verdana', 'Geneva', 'Lucid', 'Arial', 'Helvetica', 'Avant Garde', sans-serif; text-anchor: middle" x="144.22125" y="234.980875" transform="rotate(-0 144.22125 234.980875)">0.4</text>
     </g>
    </g>
    <g id="xtick_4">
     <g id="line2d_7">
      <path d="M 188.86125 220.382438 
L 188.86125 20.798438 
" clip-path="url(#pe4ce6c6e18)" style="fill: none; stroke: #b0b0b0; stroke-opacity: 0.3; stroke-width: 0.8; stroke-linecap: square"/>
     </g>
     <g id="line2d_8">
      <g>
       <use xlink:href="#mf80f75ecf8" x="188.86125" y="220.382438" style="stroke: #000000; stroke-width: 0.8"/>
      </g>
     </g>
     <g id="text_4">
      <text style="font-size: 10px; font-family: 'DejaVu Sans', 'Bitstream Vera Sans', 'Computer Modern Sans Serif', 'Lucida Grande', 'Verdana', 'Geneva', 'Lucid', 'Arial', 'Helvetica', 'Avant Garde', sans-serif; text-anchor: middle" x="188.86125" y="234.980875" transform="rotate(-0 188.86125 234.980875)">0.6</text>
     </g>
    </g>
    <g id="xtick_5">
     <g id="line2d_9">
      <path d="M 233.50125 220.382438 
L 233.50125 20.798438 
" clip-path="url(#pe4ce6c6e18)" style="fill: none; stroke: #b0b0b0; stroke-opacity: 0.3; stroke-width: 0.8; stroke-linecap: square"/>
     </g>
     <g id="line2d_10">
      <g>
       <use xlink:href="#mf80f75ecf8" x="233.50125" y="220.382438" style="stroke: #000000; stroke-width: 0.8"/>
      </g>
     </g>
     <g id="text_5">
      <text style="font-size: 10px; font-family: 'DejaVu Sans', 'Bitstream Vera Sans', 'Computer Modern Sans Serif', 'Lucida Grande', 'Verdana', 'Geneva', 'Lucid', 'Arial', 'Helvetica', 'Avant Garde', sans-serif; text-anchor: middle" x="233.50125" y="234.980875" transform="rotate(-0 233.50125 234.980875)">0.8</text>
     </g>
    </g>
    <g id="xtick_6">
     <g id="line2d_11">
      <path d="M 278.14125 220.382438 
L 278.14125 20.798438 
" clip-path="url(#pe4ce6c6e18)" style="fill: none; stroke: #b0b0b0; stroke-opacity: 0.3; stroke-width: 0.8; stroke-linecap: square"/>
     </g>
     <g id="line2d_12">
      <g>
       <use xlink:href="#mf80f75ecf8" x="278.14125" y="220.382438" style="stroke: #000000; stroke-width: 0.8"/>
      </g>
     </g>
     <g id="text_6">
      <text style="font-size: 10px; font-family: 'DejaVu Sans', 'Bitstream Vera Sans', 'Computer Modern Sans Serif', 'Lucida Grande', 'Verdana', 'Geneva', 'Lucid', 'Arial', 'Helvetica', 'Avant Garde', sans-serif; text-anchor: middle" x="278.14125" y="234.980875" transform="rotate(-0 278.14125 234.980875)">1.0</text>
     </g>
    </g>
    <g id="text_7">
     <text style="font-size: 10px; font-family: 'DejaVu Sans', 'Bitstream Vera Sans', 'Computer Modern Sans Serif', 'Lucida Grande', 'Verdana', 'Geneva', 'Lucid', 'Arial', 'Helvetica', 'Avant Garde', sans-serif; text-anchor: middle" x="166.54125" y="248.659" transform="rotate(-0 166.54125 248.659)">False Positive Rate</text>
    </g>
   </g>
   <g id="matplotlib.axis_2">
    <g id="ytick_1">
     <g id="line2d_13">
      <path d="M 43.78125 211.310438 
L 289.30125 211.310438 
" clip-path="url(#pe4ce6c6e18)" style="fill: none; stroke: #b0b0b0; stroke-opacity: 0.3; stroke-width: 0.8; stroke-linecap: square"/>
     </g>
     <g id="line2d_14">
      <defs>
       <path id="ma20461427f" d="M 0 0 
L -3.5 0 
" style="stroke: #000000; stroke-width: 0.8"/>
      </defs>
      <g>
       <use xlink:href="#ma20461427f" x="43.78125" y="211.310438" style="stroke: #000000; stroke-width: 0.8"/>
      </g>
     </g>
     <g id="text_8">
      <text style="font-size: 10px; font-family: 'DejaVu Sans', 'Bitstream Vera Sans', 'Computer Modern Sans Serif', 'Lucida Grande', 'Verdana', 'Geneva', 'Lucid', 'Arial', 'Helvetica', 'Avant Garde', sans-serif; text-anchor: end" x="36.78125" y="215.109656" transform="rotate(-0 36.78125 215.109656)">0.0</text>
     </g>
    </g>
    <g id="ytick_2">
     <g id="line2d_15">
      <path d="M 43.78125 175.022438 
L 289.30125 175.022438 
" clip-path="url(#pe4ce6c6e18)" style="fill: none; stroke: #b0b0b0; stroke-opacity: 0.3; stroke-width: 0.8; stroke-linecap: square"/>
     </g>
     <g id="line2d_16">
      <g>
       <use xlink:href="#ma20461427f" x="43.78125" y="175.022438" style="stroke: #000000; stroke-width: 0.8"/>
      </g>
     </g>
     <g id="text_9">
      <text style="font-size: 10px; font-family: 'DejaVu Sans', 'Bitstream Vera Sans', 'Computer Modern Sans Serif', 'Lucida Grande', 'Verdana', 'Geneva', 'Lucid', 'Arial', 'Helvetica', 'Avant Garde', sans-serif; text-anchor: end" x="36.78125" y="178.821656" transform="rotate(-0 36.78125 178.821656)">0.2</text>
     </g>
    </g>
    <g id="ytick_3">
     <g id="line2d_17">
      <path d="M 43.78125 138.734438 
L 289.30125 138.734438 
" clip-path="url(#pe4ce6c6e18)" style="fill: none; stroke: #b0b0b0; stroke-opacity: 0.3; stroke-width: 0.8; stroke-linecap: square"/>
     </g>
     <g id="line2d_18">
      <g>
       <use xlink:href="#ma20461427f" x="43.78125" y="138.734438" style="stroke: #000000; stroke-width: 0.8"/>
      </g>
     </g>
     <g id="text_10">
      <text style="font-size: 10px; font-family: 'DejaVu Sans', 'Bitstream Vera Sans', 'Computer Modern Sans Serif', 'Lucida Grande', 'Verdana', 'Geneva', 'Lucid', 'Arial', 'Helvetica', 'Avant Garde', sans-serif; text-anchor: end" x="36.78125" y="142.533656" transform="rotate(-0 36.78125 142.533656)">0.4</text>
     </g>
    </g>
    <g id="ytick_4">
     <g id="line2d_19">
      <path d="M 43.78125 102.446438 
L 289.30125 102.446438 
" clip-path="url(#pe4ce6c6e18)" style="fill: none; stroke: #b0b0b0; stroke-opacity: 0.3; stroke-width: 0.8; stroke-linecap: square"/>
     </g>
     <g id="line2d_20">
      <g>
       <use xlink:href="#ma20461427f" x="43.78125" y="102.446438" style="stroke: #000000; stroke-width: 0.8"/>
      </g>
     </g>
     <g id="text_11">
      <text style="font-size: 10px; font-family: 'DejaVu Sans', 'Bitstream Vera Sans', 'Computer Modern Sans Serif', 'Lucida Grande', 'Verdana', 'Geneva', 'Lucid', 'Arial', 'Helvetica', 'Avant Garde', sans-serif; text-anchor: end" x="36.78125" y="106.245656" transform="rotate(-0 36.78125 106.245656)">0.6</text>
     </g>
    </g>
    <g id="ytick_5">
     <g id="line2d_21">
      <path d="M 43.78125 66.158438 
L 289.30125 66.158438 
" clip-path="url(#pe4ce6c6e18)" style="fill: none; stroke: #b0b0b0; stroke-opacity: 0.3; stroke-width: 0.8; stroke-linecap: square"/>
     </g>
     <g id="line2d_22">
      <g>
       <use xlink:href="#ma20461427f" x="43.78125" y="66.158438" style="stroke: #000000; stroke-width: 0.8"/>
      </g>
     </g>
     <g id="text_12">
      <text style="font-size: 10px; font-family: 'DejaVu Sans', 'Bitstream Vera Sans', 'Computer Modern Sans Serif', 'Lucida Grande', 'Verdana', 'Geneva', 'Lucid', 'Arial', 'Helvetica', 'Avant Garde', sans-serif; text-anchor: end" x="36.78125" y="69.957656" transform="rotate(-0 36.78125 69.957656)">0.8</text>
     </g>
    </g>
    <g id="ytick_6">
     <g id="line2d_23">
      <path d="M 43.78125 29.870438 
L 289.30125 29.870438 
" clip-path="url(#pe4ce6c6e18)" style="fill: none; stroke: #b0b0b0; stroke-opacity: 0.3; stroke-width: 0.8; stroke-linecap: square"/>
     </g>
     <g id="line2d_24">
      <g>
       <use xlink:href="#ma20461427f" x="43.78125" y="29.870438" style="stroke: #000000; stroke-width: 0.8"/>
      </g>
     </g>
     <g id="text_13">
      <text style="font-size: 10px; font-family: 'DejaVu Sans', 'Bitstream Vera Sans', 'Computer Modern Sans Serif', 'Lucida Grande', 'Verdana', 'Geneva', 'Lucid', 'Arial', 'Helvetica', 'Avant Garde', sans-serif; text-anchor: end" x="36.78125" y="33.669656" transform="rotate(-0 36.78125 33.669656)">1.0</text>
     </g>
    </g>
    <g id="text_14">
     <text style="font-size: 10px; font-family: 'DejaVu Sans', 'Bitstream Vera Sans', 'Computer Modern Sans Serif', 'Lucida Grande', 'Verdana', 'Geneva', 'Lucid', 'Arial', 'Helvetica', 'Avant Garde', sans-serif; text-anchor: middle" x="14.798438" y="120.590438" transform="rotate(-90 14.798438 120.590438)">True Positive Rate</text>
    </g>
   </g>
   <g id="line2d_25">
    <path d="M 54.94125 211.310438 
L 54.94125 157.021304 
L 54.94125 112.7328 
L 55.613539 112.7328 
L 55.613539 102.73217 
L 56.285828 102.73217 
L 56.285828 101.303508 
L 56.958117 101.303508 
L 56.958117 98.446186 
L 57.630407 98.446186 
L 57.630407 94.160201 
L 58.974985 94.160201 
L 58.974985 92.73154 
L 60.991852 92.73154 
L 60.991852 89.874217 
L 61.664142 89.874217 
L 61.664142 88.445556 
L 62.336431 88.445556 
L 62.336431 87.016894 
L 63.00872 87.016894 
L 63.00872 85.588233 
L 64.353298 85.588233 
L 64.353298 84.159571 
L 69.059322 84.159571 
L 69.059322 82.73091 
L 70.403901 82.73091 
L 70.403901 81.302249 
L 71.07619 81.302249 
L 71.07619 78.444926 
L 71.748479 78.444926 
L 71.748479 77.016264 
L 75.782214 77.016264 
L 75.782214 74.158941 
L 81.832816 74.158941 
L 81.832816 72.73028 
L 85.194262 72.73028 
L 85.194262 71.301619 
L 88.555708 71.301619 
L 88.555708 69.872957 
L 94.60631 69.872957 
L 94.60631 68.444296 
L 95.278599 68.444296 
L 95.278599 67.015634 
L 97.295467 67.015634 
L 97.295467 65.586973 
L 104.018358 65.586973 
L 104.018358 64.158312 
L 105.362937 64.158312 
L 105.362937 62.72965 
L 129.565346 62.72965 
L 129.565346 61.300989 
L 134.94366 61.300989 
L 134.94366 59.872327 
L 138.977395 59.872327 
L 138.977395 58.443666 
L 143.01113 58.443666 
L 143.01113 57.015004 
L 145.700286 57.015004 
L 145.700286 55.586343 
L 152.423178 55.586343 
L 152.423178 54.157682 
L 153.095467 54.157682 
L 153.095467 52.72902 
L 155.784623 52.72902 
L 155.784623 51.300359 
L 159.818358 51.300359 
L 159.818358 49.871697 
L 161.835226 49.871697 
L 161.835226 48.443036 
L 165.196672 48.443036 
L 165.196672 47.014375 
L 165.868961 47.014375 
L 165.868961 45.585713 
L 167.885828 45.585713 
L 167.885828 44.157052 
L 168.558117 44.157052 
L 168.558117 42.72839 
L 196.794262 42.72839 
L 196.794262 41.299729 
L 216.290648 41.299729 
L 216.290648 39.871067 
L 241.837636 39.871067 
L 241.837636 37.013745 
L 256.627997 37.013745 
L 256.627997 35.585083 
L 263.350889 35.585083 
L 278.14125 29.870438 
" clip-path="url(#pe4ce6c6e18)" style="fill: none; stroke: #1f77b4; stroke-width: 1.5; stroke-linecap: square"/>
   </g>
   <g id="line2d_26">
    <path d="M 54.94125 211.310438 
L 54.94125 147.020674 
L 54.94125 98.446186 
L 55.613539 98.446186 
L 55.613539 92.73154 
L 57.630407 92.73154 
L 57.630407 91.302878 
L 58.974985 91.302878 
L 58.974985 89.874217 
L 60.319563 89.874217 
L 60.319563 85.588233 
L 60.991852 85.588233 
L 60.991852 81.302249 
L 61.664142 81.302249 
L 61.664142 78.444926 
L 63.681009 78.444926 
L 63.681009 77.016264 
L 64.353298 77.016264 
L 64.353298 75.587603 
L 65.697877 75.587603 
L 65.697877 74.158941 
L 74.437636 74.158941 
L 74.437636 72.73028 
L 88.555708 72.73028 
L 88.555708 71.301619 
L 89.227997 71.301619 
L 89.227997 69.872957 
L 93.261732 69.872957 
L 93.261732 67.015634 
L 96.623178 67.015634 
L 96.623178 65.586973 
L 97.967756 65.586973 
L 97.967756 64.158312 
L 99.984623 64.158312 
L 99.984623 62.72965 
L 108.052093 62.72965 
L 108.052093 61.300989 
L 109.396672 61.300989 
L 109.396672 59.872327 
L 117.464142 59.872327 
L 117.464142 58.443666 
L 130.909925 58.443666 
L 130.909925 57.015004 
L 137.632816 57.015004 
L 137.632816 55.586343 
L 140.321973 55.586343 
L 140.321973 54.157682 
L 147.044864 54.157682 
L 147.044864 52.72902 
L 157.801491 52.72902 
L 157.801491 51.300359 
L 161.835226 51.300359 
L 161.835226 49.871697 
L 168.558117 49.871697 
L 168.558117 48.443036 
L 191.415949 48.443036 
L 191.415949 47.014375 
L 192.760527 47.014375 
L 192.760527 45.585713 
L 195.449684 45.585713 
L 195.449684 44.157052 
L 196.794262 44.157052 
L 196.794262 42.72839 
L 200.827997 42.72839 
L 200.827997 41.299729 
L 204.861732 41.299729 
L 204.861732 39.871067 
L 210.912334 39.871067 
L 210.912334 38.442406 
L 215.618358 38.442406 
L 215.618358 37.013745 
L 220.996672 37.013745 
L 220.996672 35.585083 
L 235.787033 35.585083 
L 235.787033 34.156422 
L 236.459322 34.156422 
L 236.459322 32.72776 
L 269.401491 32.72776 
L 269.401491 31.299099 
L 273.435226 31.299099 
L 273.435226 29.870438 
L 278.14125 29.870438 
" clip-path="url(#pe4ce6c6e18)" style="fill: none; stroke: #ff7f0e; stroke-width: 1.5; stroke-linecap: square"/>
   </g>
   <g id="line2d_27">
    <path d="M 54.94125 211.310438 
L 54.94125 209.870438 
L 54.94125 168.110438 
L 55.61557 168.110438 
L 55.61557 162.350438 
L 56.28989 162.350438 
L 56.28989 156.590438 
L 56.964211 156.590438 
L 56.964211 155.150438 
L 57.638531 155.150438 
L 57.638531 153.710438 
L 58.312851 153.710438 
L 58.312851 140.750438 
L 58.987171 140.750438 
L 58.987171 137.870438 
L 59.661492 137.870438 
L 59.661492 136.430438 
L 60.335812 136.430438 
L 60.335812 130.670438 
L 61.010132 130.670438 
L 61.010132 129.230438 
L 61.684452 129.230438 
L 61.684452 127.790438 
L 63.033093 127.790438 
L 63.033093 123.470438 
L 63.707413 123.470438 
L 63.707413 110.510438 
L 65.056054 110.510438 
L 65.056054 109.070438 
L 66.404694 109.070438 
L 66.404694 104.750438 
L 67.079014 104.750438 
L 67.079014 103.310438 
L 69.101975 103.310438 
L 69.101975 101.870438 
L 70.450616 101.870438 
L 70.450616 100.430438 
L 71.124936 100.430438 
L 71.124936 96.110438 
L 72.473576 96.110438 
L 72.473576 91.790438 
L 73.147897 91.790438 
L 73.147897 88.910438 
L 74.496537 88.910438 
L 74.496537 87.470438 
L 75.845177 87.470438 
L 75.845177 86.030438 
L 76.519498 86.030438 
L 76.519498 84.590438 
L 78.542458 84.590438 
L 78.542458 83.150438 
L 79.891099 83.150438 
L 79.891099 81.710438 
L 86.634301 81.710438 
L 86.634301 80.270438 
L 87.308622 80.270438 
L 87.308622 78.830438 
L 89.331582 78.830438 
L 89.331582 77.390438 
L 90.680223 77.390438 
L 90.680223 75.950438 
L 91.354543 75.950438 
L 91.354543 74.510438 
L 96.074785 74.510438 
L 96.074785 71.630438 
L 100.120706 71.630438 
L 100.120706 70.190438 
L 100.795026 70.190438 
L 100.795026 67.310438 
L 102.143667 67.310438 
L 102.143667 65.870438 
L 107.538229 65.870438 
L 107.538229 64.430438 
L 108.212549 64.430438 
L 108.212549 62.990438 
L 112.932791 62.990438 
L 112.932791 60.110438 
L 119.675993 60.110438 
L 119.675993 58.670438 
L 130.465117 58.670438 
L 130.465117 57.230438 
L 131.813758 57.230438 
L 131.813758 55.790438 
L 141.254241 55.790438 
L 141.254241 54.350438 
L 154.066326 54.350438 
L 154.066326 52.910438 
L 159.460887 52.910438 
L 159.460887 51.470438 
L 162.832489 51.470438 
L 162.832489 50.030438 
L 164.855449 50.030438 
L 164.855449 48.590438 
L 166.20409 48.590438 
L 166.20409 47.150438 
L 168.227051 47.150438 
L 168.227051 45.710438 
L 170.250011 45.710438 
L 170.250011 44.270438 
L 194.52554 44.270438 
L 194.52554 42.830438 
L 200.594422 42.830438 
L 200.594422 41.390438 
L 214.080827 41.390438 
L 214.080827 39.950438 
L 218.801069 39.950438 
L 218.801069 38.510438 
L 220.149709 38.510438 
L 220.149709 37.070438 
L 236.333395 37.070438 
L 236.333395 35.630438 
L 251.16844 35.630438 
L 251.16844 34.190438 
L 253.191401 34.190438 
L 253.191401 32.750438 
L 267.352126 32.750438 
L 267.352126 31.310438 
L 276.79261 31.310438 
L 276.79261 29.870438 
L 278.14125 29.870438 
" clip-path="url(#pe4ce6c6e18)" style="fill: none; stroke: #2ca02c; stroke-width: 1.5; stroke-linecap: square"/>
   </g>
   <g id="line2d_28">
    <path d="M 54.94125 211.310438 
L 54.94125 144.163351 
L 54.94125 99.874847 
L 55.613539 99.874847 
L 55.613539 98.446186 
L 56.285828 98.446186 
L 56.285828 95.588863 
L 57.630407 95.588863 
L 57.630407 92.73154 
L 58.974985 92.73154 
L 58.974985 88.445556 
L 59.647274 88.445556 
L 59.647274 87.016894 
L 60.991852 87.016894 
L 60.991852 78.444926 
L 63.00872 78.444926 
L 63.00872 77.016264 
L 69.731611 77.016264 
L 69.731611 75.587603 
L 73.765346 75.587603 
L 73.765346 74.158941 
L 79.815949 74.158941 
L 79.815949 72.73028 
L 82.505105 72.73028 
L 82.505105 71.301619 
L 89.227997 71.301619 
L 89.227997 69.872957 
L 89.900286 69.872957 
L 89.900286 68.444296 
L 93.934021 68.444296 
L 93.934021 67.015634 
L 95.950889 67.015634 
L 95.950889 65.586973 
L 98.640045 65.586973 
L 98.640045 64.158312 
L 99.984623 64.158312 
L 99.984623 62.72965 
L 120.825587 62.72965 
L 120.825587 61.300989 
L 122.170166 61.300989 
L 122.170166 59.872327 
L 124.859322 59.872327 
L 124.859322 58.443666 
L 130.909925 58.443666 
L 130.909925 57.015004 
L 138.305105 57.015004 
L 138.305105 55.586343 
L 138.977395 55.586343 
L 138.977395 54.157682 
L 149.061732 54.157682 
L 149.061732 52.72902 
L 157.801491 52.72902 
L 157.801491 51.300359 
L 163.179804 51.300359 
L 163.179804 49.871697 
L 172.591852 49.871697 
L 172.591852 48.443036 
L 190.74366 48.443036 
L 190.74366 47.014375 
L 193.432816 47.014375 
L 193.432816 45.585713 
L 195.449684 45.585713 
L 195.449684 44.157052 
L 203.517154 44.157052 
L 203.517154 42.72839 
L 204.861732 42.72839 
L 204.861732 41.299729 
L 207.550889 41.299729 
L 207.550889 39.871067 
L 213.601491 39.871067 
L 213.601491 38.442406 
L 229.064142 38.442406 
L 229.064142 37.013745 
L 229.736431 37.013745 
L 229.736431 35.585083 
L 252.594262 35.585083 
L 252.594262 34.156422 
L 255.283419 34.156422 
L 255.283419 32.72776 
L 259.989443 32.72776 
L 259.989443 31.299099 
L 278.14125 31.299099 
L 278.14125 29.870438 
" clip-path="url(#pe4ce6c6e18)" style="fill: none; stroke: #d62728; stroke-width: 1.5; stroke-linecap: square"/>
   </g>
   <g id="line2d_29">
    <path d="M 54.94125 211.310438 
L 54.94125 146.510438 
L 54.94125 129.230438 
L 55.61557 129.230438 
L 55.61557 126.350438 
L 56.964211 126.350438 
L 56.964211 122.030438 
L 57.638531 122.030438 
L 57.638531 120.590438 
L 58.312851 120.590438 
L 58.312851 117.710438 
L 61.684452 117.710438 
L 61.684452 114.830438 
L 63.707413 114.830438 
L 63.707413 113.390438 
L 68.427655 113.390438 
L 68.427655 110.510438 
L 69.776295 110.510438 
L 69.776295 107.630438 
L 73.147897 107.630438 
L 73.147897 104.750438 
L 73.822217 104.750438 
L 73.822217 103.310438 
L 78.542458 103.310438 
L 78.542458 98.990438 
L 79.216779 98.990438 
L 79.216779 97.550438 
L 80.565419 97.550438 
L 80.565419 94.670438 
L 81.91406 94.670438 
L 81.91406 90.350438 
L 85.959981 90.350438 
L 85.959981 88.910438 
L 87.982942 88.910438 
L 87.982942 87.470438 
L 90.005903 87.470438 
L 90.005903 86.030438 
L 93.377504 86.030438 
L 93.377504 84.590438 
L 96.074785 84.590438 
L 96.074785 83.150438 
L 99.446386 83.150438 
L 99.446386 80.270438 
L 102.817987 80.270438 
L 102.817987 78.830438 
L 103.492307 78.830438 
L 103.492307 77.390438 
L 104.840948 77.390438 
L 104.840948 75.950438 
L 108.886869 75.950438 
L 108.886869 74.510438 
L 111.58415 74.510438 
L 111.58415 70.190438 
L 115.630072 70.190438 
L 115.630072 68.750438 
L 118.327353 68.750438 
L 118.327353 67.310438 
L 119.001673 67.310438 
L 119.001673 65.870438 
L 128.442156 65.870438 
L 128.442156 64.430438 
L 129.790797 64.430438 
L 129.790797 62.990438 
L 134.511039 62.990438 
L 134.511039 61.550438 
L 141.254241 61.550438 
L 141.254241 60.110438 
L 141.928561 60.110438 
L 141.928561 58.670438 
L 143.951522 58.670438 
L 143.951522 57.230438 
L 165.52977 57.230438 
L 165.52977 55.790438 
L 168.227051 55.790438 
L 168.227051 54.350438 
L 183.736416 54.350438 
L 183.736416 52.910438 
L 185.085057 52.910438 
L 185.085057 50.030438 
L 191.153939 50.030438 
L 191.153939 48.590438 
L 199.920102 48.590438 
L 199.920102 47.150438 
L 202.617383 47.150438 
L 202.617383 44.270438 
L 209.360585 44.270438 
L 209.360585 41.390438 
L 211.383546 41.390438 
L 211.383546 39.950438 
L 212.732187 39.950438 
L 212.732187 38.510438 
L 233.636114 38.510438 
L 233.636114 37.070438 
L 241.727957 37.070438 
L 241.727957 35.630438 
L 244.425238 35.630438 
L 244.425238 34.190438 
L 247.122519 34.190438 
L 247.122519 32.750438 
L 254.540042 32.750438 
L 254.540042 31.310438 
L 276.79261 31.310438 
L 276.79261 29.870438 
L 278.14125 29.870438 
" clip-path="url(#pe4ce6c6e18)" style="fill: none; stroke: #9467bd; stroke-width: 1.5; stroke-linecap: square"/>
   </g>
   <g id="line2d_30">
    <path d="M 54.94125 211.310438 
L 278.14125 29.870438 
" clip-path="url(#pe4ce6c6e18)" style="fill: none; stroke-dasharray: 3.7,1.6; stroke-dashoffset: 0; stroke: #8c564b"/>
   </g>
   <g id="patch_3">
    <path d="M 43.78125 220.382438 
L 43.78125 20.798438 
" style="fill: none; stroke: #000000; stroke-width: 0.8; stroke-linejoin: miter; stroke-linecap: square"/>
   </g>
   <g id="patch_4">
    <path d="M 289.30125 220.382438 
L 289.30125 20.798438 
" style="fill: none; stroke: #000000; stroke-width: 0.8; stroke-linejoin: miter; stroke-linecap: square"/>
   </g>
   <g id="patch_5">
    <path d="M 43.78125 220.382438 
L 289.30125 220.382438 
" style="fill: none; stroke: #000000; stroke-width: 0.8; stroke-linejoin: miter; stroke-linecap: square"/>
   </g>
   <g id="patch_6">
    <path d="M 43.78125 20.798438 
L 289.30125 20.798438 
" style="fill: none; stroke: #000000; stroke-width: 0.8; stroke-linejoin: miter; stroke-linecap: square"/>
   </g>
   <g id="text_15">
    <text style="font-size: 10px; font-family: 'DejaVu Sans', 'Bitstream Vera Sans', 'Computer Modern Sans Serif', 'Lucida Grande', 'Verdana', 'Geneva', 'Lucid', 'Arial', 'Helvetica', 'Avant Garde', sans-serif; text-anchor: middle" x="166.54125" y="14.798438" transform="rotate(-0 166.54125 14.798438)">Zhao et al. -- ROC</text>
   </g>
   <g id="PathCollection_1">
    <defs>
     <path id="mb9e9081ab0" d="M 0 3.872983 
C 1.027127 3.872983 2.012324 3.464901 2.738613 2.738613 
C 3.464901 2.012324 3.872983 1.027127 3.872983 0 
C 3.872983 -1.027127 3.464901 -2.012324 2.738613 -2.738613 
C 2.012324 -3.464901 1.027127 -3.872983 0 -3.872983 
C -1.027127 -3.872983 -2.012324 -3.464901 -2.738613 -2.738613 
C -3.464901 -2.012324 -3.872983 -1.027127 -3.872983 0 
C -3.872983 1.027127 -3.464901 2.012324 -2.738613 2.738613 
C -2.012324 3.464901 -1.027127 3.872983 0 3.872983 
z
" style="stroke: #1f77b4"/>
    </defs>
    <g clip-path="url(#pe4ce6c6e18)">
     <use xlink:href="#mb9e9081ab0" x="57.630407" y="97.017524" style="fill: #1f77b4; stroke: #1f77b4"/>
    </g>
   </g>
   <g id="PathCollection_2">
    <defs>
     <path id="m4d3d13c3a9" d="M 0 3.872983 
C 1.027127 3.872983 2.012324 3.464901 2.738613 2.738613 
C 3.464901 2.012324 3.872983 1.027127 3.872983 0 
C 3.872983 -1.027127 3.464901 -2.012324 2.738613 -2.738613 
C 2.012324 -3.464901 1.027127 -3.872983 0 -3.872983 
C -1.027127 -3.872983 -2.012324 -3.464901 -2.738613 -2.738613 
C -3.464901 -2.012324 -3.872983 -1.027127 -3.872983 0 
C -3.872983 1.027127 -3.464901 2.012324 -2.738613 2.738613 
C -2.012324 3.464901 -1.027127 3.872983 0 3.872983 
z
" style="stroke: #ff7f0e"/>
    </defs>
    <g clip-path="url(#pe4ce6c6e18)">
     <use xlink:href="#m4d3d13c3a9" x="63.681009" y="78.444926" style="fill: #ff7f0e; stroke: #ff7f0e"/>
    </g>
   </g>
   <g id="PathCollection_3">
    <defs>
     <path id="m53a208d9e2" d="M 0 3.872983 
C 1.027127 3.872983 2.012324 3.464901 2.738613 2.738613 
C 3.464901 2.012324 3.872983 1.027127 3.872983 0 
C 3.872983 -1.027127 3.464901 -2.012324 2.738613 -2.738613 
C 2.012324 -3.464901 1.027127 -3.872983 0 -3.872983 
C -1.027127 -3.872983 -2.012324 -3.464901 -2.738613 -2.738613 
C -3.464901 -2.012324 -3.872983 -1.027127 -3.872983 0 
C -3.872983 1.027127 -3.464901 2.012324 -2.738613 2.738613 
C -2.012324 3.464901 -1.027127 3.872983 0 3.872983 
z
" style="stroke: #2ca02c"/>
    </defs>
    <g clip-path="url(#pe4ce6c6e18)">
     <use xlink:href="#m53a208d9e2" x="61.010132" y="130.670438" style="fill: #2ca02c; stroke: #2ca02c"/>
    </g>
   </g>
   <g id="PathCollection_4">
    <defs>
     <path id="m32db42ec9a" d="M 0 3.872983 
C 1.027127 3.872983 2.012324 3.464901 2.738613 2.738613 
C 3.464901 2.012324 3.872983 1.027127 3.872983 0 
C 3.872983 -1.027127 3.464901 -2.012324 2.738613 -2.738613 
C 2.012324 -3.464901 1.027127 -3.872983 0 -3.872983 
C -1.027127 -3.872983 -2.012324 -3.464901 -2.738613 -2.738613 
C -3.464901 -2.012324 -3.872983 -1.027127 -3.872983 0 
C -3.872983 1.027127 -3.464901 2.012324 -2.738613 2.738613 
C -2.012324 3.464901 -1.027127 3.872983 0 3.872983 
z
" style="stroke: #d62728"/>
    </defs>
    <g clip-path="url(#pe4ce6c6e18)">
     <use xlink:href="#m32db42ec9a" x="63.00872" y="77.016264" style="fill: #d62728; stroke: #d62728"/>
    </g>
   </g>
   <g id="PathCollection_5">
    <defs>
     <path id="mc0da94700f" d="M 0 3.872983 
C 1.027127 3.872983 2.012324 3.464901 2.738613 2.738613 
C 3.464901 2.012324 3.872983 1.027127 3.872983 0 
C 3.872983 -1.027127 3.464901 -2.012324 2.738613 -2.738613 
C 2.012324 -3.464901 1.027127 -3.872983 0 -3.872983 
C -1.027127 -3.872983 -2.012324 -3.464901 -2.738613 -2.738613 
C -3.464901 -2.012324 -3.872983 -1.027127 -3.872983 0 
C -3.872983 1.027127 -3.464901 2.012324 -2.738613 2.738613 
C -2.012324 3.464901 -1.027127 3.872983 0 3.872983 
z
" style="stroke: #9467bd"/>
    </defs>
    <g clip-path="url(#pe4ce6c6e18)">
     <use xlink:href="#mc0da94700f" x="100.795026" y="80.270438" style="fill: #9467bd; stroke: #9467bd"/>
    </g>
   </g>
   <g id="legend_1">
    <g id="patch_7">
     <path d="M 156.58 216.382438 
L 283.70125 216.382438 
Q 285.30125 216.382438 285.30125 214.782438 
L 285.30125 145.127438 
Q 285.30125 143.527438 283.70125 143.527438 
L 156.58 143.527438 
Q 154.98 143.527438 154.98 145.127438 
L 154.98 214.782438 
Q 154.98 216.382438 156.58 216.382438 
z
" style="fill: #ffffff; opacity: 0.9; stroke: #cccccc; stroke-linejoin: miter"/>
    </g>
    <g id="line2d_31">
     <path d="M 158.18 150.006188 
L 166.18 150.006188 
L 174.18 150.006188 
" style="fill: none; stroke: #1f77b4; stroke-width: 1.5; stroke-linecap: square"/>
    </g>
    <g id="text_16">
     <text style="font-size: 8px; font-family: 'DejaVu Sans', 'Bitstream Vera Sans', 'Computer Modern Sans Serif', 'Lucida Grande', 'Verdana', 'Geneva', 'Lucid', 'Arial', 'Helvetica', 'Avant Garde', sans-serif; text-anchor: start" x="180.58" y="152.806188" transform="rotate(-0 180.58 152.806188)">KS (AUC=0.872)</text>
    </g>
    <g id="line2d_32">
     <path d="M 158.18 161.748688 
L 166.18 161.748688 
L 174.18 161.748688 
" style="fill: none; stroke: #ff7f0e; stroke-width: 1.5; stroke-linecap: square"/>
    </g>
    <g id="text_17">
     <text style="font-size: 8px; font-family: 'DejaVu Sans', 'Bitstream Vera Sans', 'Computer Modern Sans Serif', 'Lucida Grande', 'Verdana', 'Geneva', 'Lucid', 'Arial', 'Helvetica', 'Avant Garde', sans-serif; text-anchor: start" x="180.58" y="164.548688" transform="rotate(-0 180.58 164.548688)">MWU (AUC=0.882)</text>
    </g>
    <g id="line2d_33">
     <path d="M 158.18 173.491188 
L 166.18 173.491188 
L 174.18 173.491188 
" style="fill: none; stroke: #2ca02c; stroke-width: 1.5; stroke-linecap: square"/>
    </g>
    <g id="text_18">
     <text style="font-size: 8px; font-family: 'DejaVu Sans', 'Bitstream Vera Sans', 'Computer Modern Sans Serif', 'Lucida Grande', 'Verdana', 'Geneva', 'Lucid', 'Arial', 'Helvetica', 'Avant Garde', sans-serif; text-anchor: start" x="180.58" y="176.291188" transform="rotate(-0 180.58 176.291188)">pseudobulk (AUC=0.857)</text>
    </g>
    <g id="line2d_34">
     <path d="M 158.18 185.233688 
L 166.18 185.233688 
L 174.18 185.233688 
" style="fill: none; stroke: #d62728; stroke-width: 1.5; stroke-linecap: square"/>
    </g>
    <g id="text_19">
     <text style="font-size: 8px; font-family: 'DejaVu Sans', 'Bitstream Vera Sans', 'Computer Modern Sans Serif', 'Lucida Grande', 'Verdana', 'Geneva', 'Lucid', 'Arial', 'Helvetica', 'Avant Garde', sans-serif; text-anchor: start" x="180.58" y="188.033688" transform="rotate(-0 180.58 188.033688)">t-test (AUC=0.878)</text>
    </g>
    <g id="line2d_35">
     <path d="M 158.18 196.976188 
L 166.18 196.976188 
L 174.18 196.976188 
" style="fill: none; stroke: #9467bd; stroke-width: 1.5; stroke-linecap: square"/>
    </g>
    <g id="text_20">
     <text style="font-size: 8px; font-family: 'DejaVu Sans', 'Bitstream Vera Sans', 'Computer Modern Sans Serif', 'Lucida Grande', 'Verdana', 'Geneva', 'Lucid', 'Arial', 'Helvetica', 'Avant Garde', sans-serif; text-anchor: start" x="180.58" y="199.776188" transform="rotate(-0 180.58 199.776188)">Wald (AUC=0.834)</text>
    </g>
    <g id="line2d_36">
     <path d="M 158.18 208.718688 
L 166.18 208.718688 
L 174.18 208.718688 
" style="fill: none; stroke-dasharray: 3.7,1.6; stroke-dashoffset: 0; stroke: #8c564b"/>
    </g>
    <g id="text_21">
     <text style="font-size: 8px; font-family: 'DejaVu Sans', 'Bitstream Vera Sans', 'Computer Modern Sans Serif', 'Lucida Grande', 'Verdana', 'Geneva', 'Lucid', 'Arial', 'Helvetica', 'Avant Garde', sans-serif; text-anchor: start" x="180.58" y="211.518688" transform="rotate(-0 180.58 211.518688)">chance</text>
    </g>
   </g>
  </g>
 </g>
 <defs>
  <clipPath id="pe4ce6c6e18">
   <rect x="43.78125" y="20.798438" width="245.52" height="199.584"/>
  </clipPath>
 </defs>
</svg>
